<?xml version="1.0" standalone="no"?>
<!DOCTYPE svg PUBLIC "-//W3C//DTD SVG 20010904//EN"
 "http://www.w3.org/TR/2001/REC-SVG-20010904/DTD/svg10.dtd">
<svg version="1.0" xmlns="http://www.w3.org/2000/svg"
 width="640.000000pt" height="640.000000pt" viewBox="0 0 640.000000 640.000000"
 preserveAspectRatio="xMidYMid meet">

<g transform="translate(0.000000,640.000000) scale(0.100000,-0.100000)"
fill="#000000" stroke="none">
<path d="M3925 5198 c-24 -14 -267 -209 -312 -252 l-33 -30 0 -308 0 -308
-578 0 -579 0 -21 -23 c-22 -23 -22 -27 -22 -400 l0 -377 -740 0 c-520 0 -746
-3 -763 -11 -14 -6 -30 -22 -36 -36 -8 -17 -11 -326 -11 -1073 l0 -1050 -55 0
c-42 0 -60 -5 -75 -20 -25 -25 -26 -61 -1 -91 l19 -24 2482 0 2482 0 19 24
c25 30 24 66 -1 91 -15 15 -33 20 -75 20 l-55 0 0 1050 c0 747 -3 1056 -11
1073 -6 14 -22 30 -36 36 -17 8 -243 11 -763 11 l-740 0 0 829 c0 775 -1 830
-17 849 -23 26 -53 34 -78 20z m-45 -558 l0 -340 -85 0 -85 0 0 274 0 274 78
66 c42 36 80 65 85 66 4 0 7 -153 7 -340z m0 -1895 l0 -1415 -120 0 -120 0 0
380 0 381 -25 24 -24 25 -391 0 -391 0 -24 -25 -25 -24 0 -381 0 -380 -120 0
-120 0 0 1415 0 1415 680 0 680 0 0 -1415z m-1500 -400 l0 -1015 -705 0 -705
0 0 1015 0 1015 705 0 705 0 0 -1015z m3050 0 l0 -1015 -705 0 -705 0 0 1015
0 1015 705 0 705 0 0 -1015z m-2300 -680 l0 -335 -115 0 -115 0 0 335 0 335
115 0 115 0 0 -335z m370 0 l0 -335 -115 0 -115 0 0 335 0 335 115 0 115 0 0
-335z"/>
<path d="M2650 4030 c-19 -19 -20 -33 -20 -235 0 -202 1 -216 20 -235 19 -19
33 -20 220 -20 187 0 201 1 220 20 19 19 20 33 20 235 0 202 -1 216 -20 235
-19 19 -33 20 -220 20 -187 0 -201 -1 -220 -20z m330 -235 l0 -115 -110 0
-110 0 0 115 0 115 110 0 110 0 0 -115z"/>
<path d="M3310 4030 c-19 -19 -20 -33 -20 -235 0 -202 1 -216 20 -235 19 -19
33 -20 220 -20 187 0 201 1 220 20 19 19 20 33 20 239 0 216 0 220 -22 235
-19 13 -57 16 -220 16 -185 0 -199 -1 -218 -20z m330 -235 l0 -115 -110 0
-110 0 0 115 0 115 110 0 110 0 0 -115z"/>
<path d="M2647 3382 c-15 -16 -17 -48 -17 -234 0 -206 1 -216 21 -234 19 -17
38 -19 219 -19 181 0 200 2 219 19 20 18 21 28 21 236 0 197 -2 218 -18 233
-16 15 -47 17 -224 17 -186 0 -206 -2 -221 -18z m328 -232 l0 -115 -105 0
-105 0 -3 104 c-1 58 0 111 2 118 4 11 29 13 108 11 l103 -3 0 -115z"/>
<path d="M3307 3382 c-15 -16 -17 -48 -17 -234 0 -206 1 -216 21 -234 19 -17
38 -19 219 -19 181 0 200 2 219 19 20 18 21 28 21 236 0 197 -2 218 -18 233
-16 15 -47 17 -224 17 -186 0 -206 -2 -221 -18z m328 -232 l0 -115 -105 0
-105 0 -3 104 c-1 58 0 111 2 118 4 11 29 13 108 11 l103 -3 0 -115z"/>
<path d="M2650 2740 c-19 -19 -20 -33 -20 -238 0 -199 2 -220 18 -235 27 -24
406 -25 440 -1 22 15 22 19 22 235 0 206 -1 220 -20 239 -19 19 -33 20 -220
20 -187 0 -201 -1 -220 -20z m330 -235 l0 -115 -110 0 -110 0 0 115 0 115 110
0 110 0 0 -115z"/>
<path d="M3310 2740 c-19 -19 -20 -33 -20 -239 0 -216 0 -220 22 -235 19 -13
57 -16 218 -16 161 0 199 3 218 16 22 15 22 19 22 235 0 206 -1 220 -20 239
-19 19 -33 20 -220 20 -187 0 -201 -1 -220 -20z m330 -235 l0 -115 -110 0
-110 0 0 115 0 115 110 0 110 0 0 -115z"/>
<path d="M1120 3190 c-19 -19 -20 -33 -20 -229 0 -280 -23 -256 245 -256 268
0 245 -24 245 256 0 196 -1 210 -20 229 -19 19 -33 20 -225 20 -192 0 -206 -1
-225 -20z m330 -230 l0 -120 -105 0 -105 0 0 113 c0 63 3 117 7 120 3 4 51 7
105 7 l98 0 0 -120z"/>
<path d="M1780 3188 c-19 -20 -20 -34 -20 -229 0 -278 -23 -254 245 -254 268
0 245 -24 245 256 0 196 -1 210 -20 229 -19 19 -33 20 -225 20 -197 0 -205 -1
-225 -22z m330 -228 l0 -120 -105 0 -105 0 0 113 c0 63 3 117 7 120 3 4 51 7
105 7 l98 0 0 -120z"/>
<path d="M1121 2574 c-20 -25 -21 -39 -21 -231 0 -273 -20 -253 249 -253 l200
0 20 26 c20 25 21 39 21 231 0 273 20 253 -249 253 l-200 0 -20 -26z m329
-229 l0 -115 -105 0 -105 0 0 115 0 115 105 0 105 0 0 -115z"/>
<path d="M1785 2575 c-25 -24 -25 -25 -25 -230 0 -275 -20 -255 248 -255 263
0 242 -22 242 256 0 276 21 254 -244 254 -196 0 -197 0 -221 -25z m325 -230
l0 -115 -105 0 -105 0 0 115 0 115 105 0 105 0 0 -115z"/>
<path d="M1143 1980 c-39 -16 -43 -40 -43 -254 0 -193 1 -207 20 -226 19 -19
33 -20 225 -20 192 0 206 1 225 20 19 19 20 33 20 229 0 278 21 255 -232 258
-106 1 -203 -2 -215 -7z m305 -247 l-3 -118 -100 0 -100 0 -3 118 -3 117 106
0 106 0 -3 -117z"/>
<path d="M1803 1980 c-39 -16 -43 -40 -43 -252 0 -271 -22 -248 245 -248 192
0 206 1 225 20 19 19 20 33 20 229 0 278 21 255 -232 258 -106 1 -203 -2 -215
-7z m307 -250 l0 -121 -102 3 -103 3 -3 118 -3 117 106 0 105 0 0 -120z"/>
<path d="M4170 3190 c-19 -19 -20 -33 -20 -229 0 -280 -23 -256 245 -256 268
0 245 -24 245 256 0 196 -1 210 -20 229 -19 19 -33 20 -225 20 -192 0 -206 -1
-225 -20z m328 -232 l3 -118 -106 0 -105 0 0 120 0 121 103 -3 102 -3 3 -117z"/>
<path d="M4830 3190 c-19 -19 -20 -33 -20 -229 0 -280 -23 -256 245 -256 268
0 245 -24 245 256 0 196 -1 210 -20 229 -19 19 -33 20 -225 20 -192 0 -206 -1
-225 -20z m328 -232 l3 -118 -106 0 -105 0 0 120 0 121 103 -3 102 -3 3 -117z"/>
<path d="M4172 2577 c-21 -22 -22 -31 -22 -233 0 -276 -21 -254 244 -254 265
0 246 -20 246 255 0 275 20 255 -248 255 -195 0 -199 0 -220 -23z m328 -232
l0 -115 -105 0 -105 0 0 115 0 115 105 0 105 0 0 -115z"/>
<path d="M4831 2574 c-20 -25 -21 -39 -21 -229 0 -190 1 -204 21 -229 l20 -26
204 0 204 0 20 26 c20 25 21 39 21 229 0 190 -1 204 -21 229 l-20 26 -204 0
-204 0 -20 -26z m329 -229 l0 -115 -105 0 -105 0 0 115 0 115 105 0 105 0 0
-115z"/>
<path d="M4193 1980 c-39 -16 -43 -40 -43 -254 0 -193 1 -207 20 -226 19 -19
33 -20 225 -20 268 0 245 -23 245 251 0 276 20 253 -232 256 -106 1 -203 -2
-215 -7z m305 -247 l-3 -118 -102 -3 -103 -3 0 121 0 120 105 0 106 0 -3 -117z"/>
<path d="M4853 1980 c-39 -16 -43 -40 -43 -254 0 -193 1 -207 20 -226 19 -19
33 -20 225 -20 192 0 206 1 225 20 19 19 20 33 20 229 0 278 21 255 -232 258
-106 1 -203 -2 -215 -7z m305 -247 l-3 -118 -100 0 -100 0 -3 118 -3 117 106
0 106 0 -3 -117z"/>
</g>
</svg>
