<?xml version="1.0" standalone="no"?>
<!DOCTYPE svg PUBLIC "-//W3C//DTD SVG 20010904//EN"
 "http://www.w3.org/TR/2001/REC-SVG-20010904/DTD/svg10.dtd">
<svg version="1.0" xmlns="http://www.w3.org/2000/svg"
 width="224.000000pt" height="225.000000pt" viewBox="0 0 224.000000 225.000000"
 preserveAspectRatio="xMidYMid meet">

<g transform="translate(0.000000,225.000000) scale(0.100000,-0.100000)"
fill="#000000" stroke="none">
<path d="M848 2240 c-210 -33 -412 -134 -555 -277 -295 -296 -372 -750 -190
-1123 125 -257 355 -445 637 -522 73 -20 108 -23 250 -22 137 0 178 4 245 22
61 17 221 87 295 129 3 2 97 -98 209 -222 l204 -224 90 82 c50 45 116 105 146
134 l56 51 -26 29 c-14 15 -109 119 -211 229 l-185 202 52 105 c189 384 117
825 -184 1128 -177 178 -403 275 -661 284 -63 2 -141 0 -172 -5z m365 -129
c256 -68 486 -269 583 -509 49 -123 59 -178 59 -337 -1 -113 -5 -166 -19 -215
-20 -76 -93 -234 -124 -270 l-21 -25 -1 471 c0 421 -2 473 -16 478 -9 3 -303
6 -654 6 -570 0 -640 -2 -654 -16 -15 -14 -16 -70 -14 -520 2 -277 1 -504 -2
-504 -3 1 -24 25 -47 54 -60 75 -127 207 -159 311 -24 79 -27 107 -27 230 0
113 4 155 22 220 89 329 343 568 681 640 92 20 292 13 393 -14z m405 -963 l-3
-492 -70 -59 c-223 -187 -551 -248 -835 -156 -82 27 -128 50 -212 106 l-68 45
0 524 0 524 595 0 595 0 -2 -492z"/>
<path d="M515 1507 c-3 -7 -4 -111 -3 -232 l3 -220 510 0 510 0 0 230 0 230
-508 3 c-406 2 -509 0 -512 -11z m335 -193 c0 -92 -1 -97 -29 -125 -39 -39
-100 -41 -136 -4 -30 29 -33 65 -6 65 11 0 26 3 34 6 9 3 16 -3 20 -15 3 -12
12 -21 21 -21 14 0 16 15 16 95 l0 95 40 0 40 0 0 -96z m229 82 c35 -19 51
-55 51 -117 0 -45 -4 -55 -34 -85 -30 -30 -40 -34 -86 -34 -46 0 -56 4 -86 34
-30 30 -34 40 -34 86 0 57 21 102 54 119 31 15 103 13 135 -3z m279 -2 c26
-18 30 -65 7 -84 -14 -11 -13 -14 5 -27 27 -19 27 -74 0 -98 -16 -15 -42 -20
-110 -23 l-90 -4 0 126 0 126 83 0 c59 0 89 -5 105 -16z"/>
<path d="M968 1325 c-8 -17 -8 -37 -2 -63 8 -31 14 -38 39 -40 47 -6 73 56 45
109 -16 29 -67 26 -82 -6z"/>
<path d="M1250 1335 c0 -23 4 -26 28 -23 19 2 27 9 27 23 0 14 -8 21 -27 23
-24 3 -28 0 -28 -23z"/>
<path d="M1250 1240 c0 -32 16 -38 51 -20 36 20 17 50 -32 50 -14 0 -19 -7
-19 -30z"/>
<path d="M1116 937 c-11 -8 -17 -23 -14 -38 l3 -24 205 0 205 0 3 24 c7 45
-16 51 -208 51 -129 0 -181 -3 -194 -13z"/>
<path d="M531 926 c-9 -11 -10 -20 -1 -35 10 -20 19 -21 210 -21 178 0 200 2
209 17 6 11 6 24 0 35 -9 16 -28 18 -208 18 -160 0 -201 -3 -210 -14z"/>
<path d="M536 744 c-19 -18 -19 -20 -6 -45 10 -18 23 -19 210 -19 187 0 200 1
210 19 13 25 13 27 -6 45 -23 24 -385 24 -408 0z"/>
<path d="M1112 748 c-21 -21 -14 -57 11 -63 12 -3 105 -4 207 -3 185 3 185 3
188 26 7 49 -6 52 -207 52 -132 0 -191 -4 -199 -12z"/>
</g>
</svg>
