<?xml version="1.0" standalone="no"?>
<!DOCTYPE svg PUBLIC "-//W3C//DTD SVG 20010904//EN"
 "http://www.w3.org/TR/2001/REC-SVG-20010904/DTD/svg10.dtd">
<svg version="1.0" xmlns="http://www.w3.org/2000/svg"
 width="920.000000pt" height="551.000000pt" viewBox="0 0 920.000000 551.000000"
 preserveAspectRatio="xMidYMid meet">

<g transform="translate(0.000000,551.000000) scale(0.100000,-0.100000)"
fill="#000000" stroke="none">
<path d="M4360 5504 c-95 -9 -297 -45 -416 -75 -617 -151 -1158 -508 -1543
-1019 -275 -365 -450 -786 -528 -1276 -25 -155 -25 -603 0 -758 107 -666 396
-1216 868 -1652 403 -372 902 -608 1485 -701 155 -25 603 -25 758 0 490 78
912 253 1276 528 589 444 955 1065 1077 1825 14 84 18 170 18 379 0 294 -9
372 -66 619 -234 1015 -1015 1809 -2022 2055 -243 59 -350 73 -617 76 -135 1
-265 1 -290 -1z m475 -145 c981 -86 1830 -719 2201 -1641 213 -530 241 -1144
78 -1703 -130 -444 -425 -914 -759 -1205 -483 -423 -1034 -644 -1660 -667
-905 -32 -1757 405 -2264 1162 -587 877 -587 2023 0 2900 534 798 1451 1238
2404 1154z"/>
<path d="M3183 4520 c-88 -18 -174 -76 -226 -153 -71 -104 -67 -8 -67 -1548 0
-1383 0 -1388 21 -1444 28 -74 73 -132 139 -177 105 -72 42 -69 1356 -66
l1179 3 50 23 c115 53 183 126 216 233 18 58 19 115 19 1287 0 674 -2 1227 -4
1230 -8 8 -179 -19 -214 -34 l-34 -14 3 -1197 c4 -1163 3 -1199 -15 -1226 -41
-60 30 -57 -1221 -57 -1250 0 -1198 -2 -1228 57 -12 24 -15 231 -18 1393 -4
1328 -3 1366 15 1393 41 60 -13 57 1039 57 l964 0 38 63 c55 89 63 97 105 97
46 0 76 -30 85 -85 13 -78 10 -75 83 -75 66 0 100 -12 127 -45 8 -10 24 -10
75 1 36 7 83 14 105 15 22 0 50 4 62 7 l23 7 -24 51 c-30 64 -74 114 -134 153
-99 63 -49 61 -1322 60 -635 -1 -1174 -5 -1197 -9z"/>
<path d="M5135 4090 c-93 -156 -165 -285 -159 -287 5 -2 132 -77 282 -167 150
-90 272 -158 272 -152 0 6 -20 90 -45 186 -25 96 -45 180 -45 186 0 14 133 79
206 99 93 27 300 29 394 4 261 -68 467 -260 544 -506 72 -232 52 -430 -63
-627 -58 -100 -165 -209 -256 -264 -69 -41 -201 -92 -237 -92 -16 0 -18 -10
-18 -105 l0 -106 43 6 c53 8 177 50 240 82 177 89 334 243 424 416 77 146 122
358 108 511 -17 200 -109 426 -227 563 -121 140 -298 253 -484 309 -78 24
-107 27 -234 28 -169 1 -244 -14 -387 -75 -51 -21 -97 -39 -102 -39 -5 0 -26
70 -48 157 l-39 156 -169 -283z"/>
<path d="M3913 4214 c-61 -30 -63 -46 -63 -414 0 -282 2 -337 16 -365 31 -66
24 -65 604 -65 455 0 526 2 555 16 49 23 65 65 65 172 l0 89 -51 32 c-28 17
-51 31 -52 31 -1 0 -1 -48 1 -106 2 -71 -1 -110 -9 -120 -10 -12 -89 -14 -508
-14 -373 0 -500 3 -509 12 -17 17 -17 619 0 636 9 9 136 12 509 12 429 0 498
-2 509 -15 8 -10 11 -35 8 -70 -3 -30 -4 -55 -3 -55 1 0 24 37 50 81 42 73 46
84 34 105 -28 54 -34 54 -601 54 -454 0 -527 -3 -555 -16z"/>
<path d="M4100 3800 l0 -180 150 0 150 0 0 180 0 180 -150 0 -150 0 0 -180z"/>
<path d="M4540 3927 l0 -53 150 0 150 0 0 53 0 53 -150 0 -150 0 0 -53z"/>
<path d="M4540 3770 c0 -19 7 -20 150 -20 143 0 150 1 150 20 0 19 -7 20 -150
20 -143 0 -150 -1 -150 -20z"/>
<path d="M4540 3640 c0 -19 7 -20 150 -20 143 0 150 1 150 20 0 19 -7 20 -150
20 -143 0 -150 -1 -150 -20z"/>
<path d="M3480 3249 c-20 -4 -47 -21 -62 -38 -27 -30 -28 -35 -28 -141 0 -106
1 -111 28 -140 33 -37 71 -47 175 -45 125 3 167 49 167 185 0 83 -18 131 -61
162 -28 21 -153 30 -219 17z"/>
<path d="M4083 3235 c-56 -24 -73 -66 -73 -175 0 -77 4 -101 19 -124 38 -57
18 -55 661 -56 572 0 596 1 627 20 40 24 50 43 59 108 11 88 -3 159 -41 201
l-33 36 -594 2 c-493 2 -598 0 -625 -12z"/>
<path d="M3438 2612 c-44 -26 -58 -69 -58 -169 0 -144 40 -183 185 -183 91 0
137 17 165 62 18 29 21 46 18 136 l-3 104 -37 34 -38 34 -102 0 c-79 0 -109
-4 -130 -18z"/>
<path d="M4058 2602 c-43 -26 -58 -69 -58 -162 0 -96 18 -143 64 -168 28 -15
84 -17 621 -17 658 0 635 -2 669 69 21 45 22 185 1 230 -33 69 -7 66 -672 66
-545 -1 -600 -2 -625 -18z"/>
<path d="M3439 1987 c-52 -35 -60 -59 -57 -174 3 -101 4 -103 36 -135 l32 -33
115 0 115 0 32 33 c32 32 33 35 36 131 6 163 -29 201 -184 201 -78 0 -96 -3
-125 -23z"/>
<path d="M4070 1987 c-13 -7 -35 -28 -47 -46 -20 -29 -23 -47 -23 -120 0 -103
18 -148 70 -173 32 -17 83 -18 615 -18 532 0 583 1 615 18 55 27 71 70 68 179
-3 99 -19 134 -69 160 -35 18 -1193 18 -1229 0z"/>
</g>
</svg>
